<?xml version="1.0" encoding="utf-8"?>
<!-- Generator: Adobe Illustrator 12.0.0, SVG Export Plug-In . SVG Version: 6.00 Build 51448)  -->
<!DOCTYPE svg PUBLIC "-//W3C//DTD SVG 1.1//EN" "http://www.w3.org/Graphics/SVG/1.1/DTD/svg11.dtd" [
	<!ENTITY ns_svg "http://www.w3.org/2000/svg">
	<!ENTITY ns_xlink "http://www.w3.org/1999/xlink">
]>
<svg  version="1.1" id="Layer_1" xmlns="&ns_svg;" xmlns:xlink="&ns_xlink;" width="1046" height="1024" viewBox="0 0 1046 1024"
	 overflow="visible" enable-background="new 0 0 1046 1024" xml:space="preserve">
<g id="icomoon-ignore">
</g>
<path stroke="#000000" d="M187.502,873.694L187.502,873.694L187.502,873.694C187.502,873.693,187.502,873.693,187.502,873.694
	c44.332-19.542,75.112-62.448,148.755-53.122c32.092,4.071,60.18,42.151,74.378,42.508
	c40.706,0.979,149.267-123.652,175.351-154.074c51.321-59.956,91.916-157.344,164.689-164.712
	c26.506-2.65,51.166,15.979,74.356,15.958c190.126-0.244,194.134-326.33-42.508-270.958c-41.662-58.22,79.43-93.516,5.317-143.458
	c-8.768-5.92-68.456-12.064-74.355-10.616c-22.188,5.408-63.918,49.808-63.784,79.696c0.399,76.426,80.698,22.656,100.972,79.696
	c-37.565,35.052-100.172,45.044-148.778,69.058c-30.622-59.044,29.755-49.006,26.597-100.95
	c-2.626-42.976-71.774-61.002-106.292-47.826c-22.122,8.458-52.632,56.484-53.122,74.378c-2.139,78.694,75.979,21.498,100.95,79.696
	c-40.551,33.806-101.284,47.514-154.074,69.058c-22.5-42.62,27.976-59.956,31.87-90.312c6.12-47.738-45-55.838-106.271-58.444
	c-26.618,25.994-59.244,54.614-53.122,90.312c9.66,56.35,91.982,12.684,100.95,74.378c-54.214,11.684-107.516,51.344-154.074,53.122
	c-27.174-42.265,29.554-52.522,31.87-85.015c3.874-54.124-48.182-53.211-106.27-58.443c-29.354,14.91-36.698,51.855-58.444,74.378
	c-6.254,71.773,100.794,30.266,106.27,90.312c-48.004,17.872-103.176,27.152-111.566,74.378
	c-7.656,43.089,50.586,108.54-10.616,138.141c-0.455-0.545-0.888-1.109-1.338-1.658c30.736,60.327,73.464,113.472,125.026,156.267
	C202.528,888.519,194.941,881.283,187.502,873.694z M793.18,416.772c1.469,20.14-6.031,19.359-15.958,37.188
	C646.516,458.966,786.436,324.1,793.18,416.772z M596.6,528.336c-27.33,4.316-41.773-4.271-53.122-15.934
	C528.986,416.236,657.6,478.906,596.6,528.336z M421.272,544.27c42.018,60.513-59.912,86.662-63.763,31.87
	C355.842,552.326,382.502,525.51,421.272,544.27z M240.624,618.67c8.702,18.16,6.232,45.756-5.318,58.444
	C161.15,709.563,163.378,580.192,240.624,618.67z"/>
</svg>
