<?xml version="1.0" encoding="utf-8"?>
<!-- Generator: Adobe Illustrator 12.0.0, SVG Export Plug-In . SVG Version: 6.00 Build 51448)  -->
<!DOCTYPE svg PUBLIC "-//W3C//DTD SVG 1.1//EN" "http://www.w3.org/Graphics/SVG/1.1/DTD/svg11.dtd" [
	<!ENTITY ns_svg "http://www.w3.org/2000/svg">
	<!ENTITY ns_xlink "http://www.w3.org/1999/xlink">
]>
<svg  version="1.1" id="Layer_1" xmlns="&ns_svg;" xmlns:xlink="&ns_xlink;" width="1046" height="1024" viewBox="0 0 1046 1024"
	 overflow="visible" enable-background="new 0 0 1046 1024" xml:space="preserve">
<g>
	<path d="M420.62,264.246c-106.472,6.832-240.538-13.866-329.401,10.616C197.577,267.874,331.954,288.926,420.62,264.246z"/>
	<path d="M627.859,274.862c106.336-6.988,240.715,14.064,329.379-10.616C850.902,271.234,716.504,250.18,627.859,274.862z"/>
	<path d="M861.654,540.522c31.869,0,63.762,0,95.607,0c-24.947-17.561-94.762,9.747-111.543-15.959
		c18.471-24.014,80.896-4.115,116.861-10.594c12.396-62.002,1.805-146.998,5.318-217.836c-104.6-12.284-231.945-1.848-345.336-5.318
		c-15.334,2.338,4.717,40.126-10.617,42.508c-33.314-10.95-8.055-80.498-15.934-116.884
		c78.464-7.761,192.963-78.204,154.002-153.312c-54.599-28.045-114.982-46.263-178.866-52.357
		c-78.531,12.05-156.502,41.917-166.463,104.699c-13.174,83.146,87.53,114.526,180.669,100.95c0,37.188,0,74.378,0,111.566
		c-51.588-10.75-105.045-1.358-154.095,5.318c0-14.176,0-28.33,0-42.508c-115.106,0-230.23,0-345.336,0
		c-12.172,64.006-1.958,150.356-5.318,223.154c39.458,6.588,105.602-13.508,127.522,10.594
		c-20.296,22.21-79.608,5.408-116.884,10.616c24.882,12.328,72.552,1.826,106.27,5.317
		c-52.012,122.227-21.931,334.805,61.327,399.48c-3.535-1.798-7.031-3.689-10.508-5.626
		c78.929,52.593,173.504,83.212,275.168,83.212c114.948,0,220.831-39.146,305.285-104.938
		C884.075,845.897,903.134,642.451,861.654,540.522z M558.736,67.642c35.229,0.49-9.549-18.628,10.658-37.188
		c5.408,3.45,5.496,12.218,15.957,10.616c-1.58,12.35-13.373,24.904,10.594,21.254C602.844,88.72,551.059,101.226,558.736,67.642z
		 M404.707,970.876c-108.34-44.822-188.17-170.854-191.263-281.596c-5.142-181.784,120.822-297.666,270.958-318.786
		C688.996,341.718,862.387,501,840.377,715.852C821.48,900.394,620.805,1060.364,404.707,970.876z"/>
</g>
<g id="icomoon-ignore">
</g>
</svg>
