<?xml version="1.0" encoding="utf-8"?>
<!-- Generator: Adobe Illustrator 12.0.0, SVG Export Plug-In . SVG Version: 6.00 Build 51448)  -->
<!DOCTYPE svg PUBLIC "-//W3C//DTD SVG 1.1//EN" "http://www.w3.org/Graphics/SVG/1.1/DTD/svg11.dtd" [
	<!ENTITY ns_svg "http://www.w3.org/2000/svg">
	<!ENTITY ns_xlink "http://www.w3.org/1999/xlink">
]>
<svg  version="1.1" id="Layer_1" xmlns="&ns_svg;" xmlns:xlink="&ns_xlink;" width="1046" height="1024" viewBox="0 0 1046 1024"
	 overflow="visible" enable-background="new 0 0 1046 1024" xml:space="preserve">
<g id="icomoon-ignore">
</g>
<path stroke="#000000" d="M959.34,748.309L959.34,748.309c-12.596-69.437,11.641-147.532-58.443-175.328
	c6.119-35.521,45.178-17.982,53.121-58.444c-11.462-20.408-34.117-29.645-58.466-37.188c-39.748,25.973-4.05,49.631-21.254,79.696
	c-19.786-2.694-66.855-20.786-74.355-53.122c15.378-17.182,51.699-14.554,47.825-47.826c-2.693-23.1-26.306-26.506-53.122-37.188
	c-36.497,18.939-2.916,56.038-21.254,79.695c-30.155-10.571-59.733-21.741-74.378-47.825c11.506-26.263,47.204-13.175,53.122-53.122
	c-7.076-24.792-36.876-26.886-58.466-37.188c-32.136,16.246-10.506,50.498-15.934,74.378c-27.33,6.521-63.072-20.964-79.696-42.508
	c14.844-26.15,45.512-13.842,53.1-53.122c-5.229-24.882-33.027-27.174-53.1-37.188c-35.142,18.05-16.982,48.406-21.254,79.696
	c-33.672-8.836-60.422-24.592-79.696-47.826c10.126-27.086,55.148-19.23,53.122-58.444c-10.172-19.942-32.092-28.11-58.444-31.87
	c-31.714,19.542-8.1,45.6-15.934,74.378c-25.46,4.65-61.202-22.856-79.696-42.508c10.126-27.086,55.148-19.23,53.122-58.444
	c-4.784-25.326-36.876-23.324-53.122-37.188c-33.562,19.608-17.048,48.338-21.254,79.696c-38.034-0.2-51.744-26.862-79.696-31.87
	C70.12,187.232,59.392,510.87,263.318,514.54c44.644,0.802,75.358-28.908,116.884,0c51.678,130.728,77.582,287.25,185.966,361.316
	c67.546-65.721,224.912-58.933,265.662,26.552c-0.31,0.281-0.621,0.552-0.931,0.831c77.429-60.645,136.242-143.594,166.568-239.063
	C987.654,692.29,975.03,720.404,959.34,748.309z M316.45,344.528C327.664,212.244,432.954,395.094,316.45,344.528L316.45,344.528z
	 M433.378,413.59c-25.66-19.564-16.826-69.55,31.87-58.444C489.038,376.532,482.896,423.87,433.378,413.59z M576.814,461.416
	c-15.356,18.472-43.089,18.472-58.444,0C502.97,400.168,592.192,400.168,576.814,461.416z M672.422,530.494
	c-33.072,18.518-66.322-14.71-47.804-47.826c12.53-4.072,36.722-10.46,47.804,0C680.412,491.28,680.412,521.882,672.422,530.494z
	 M736.208,541.112c22.344-12.73,45.622-5.809,47.804,21.254C789.464,629.932,679.412,573.426,736.208,541.112z M837.134,604.894
	c19.185-14.331,43.154-4.939,47.826,15.912C900.718,691.178,785.212,643.596,837.134,604.894z"/>
</svg>
