<?xml version="1.0" encoding="utf-8"?>
<!-- Generator: Adobe Illustrator 12.0.0, SVG Export Plug-In . SVG Version: 6.00 Build 51448)  -->
<!DOCTYPE svg PUBLIC "-//W3C//DTD SVG 1.1//EN" "http://www.w3.org/Graphics/SVG/1.1/DTD/svg11.dtd" [
	<!ENTITY ns_svg "http://www.w3.org/2000/svg">
	<!ENTITY ns_xlink "http://www.w3.org/1999/xlink">
]>
<svg  version="1.1" id="Layer_1" xmlns="&ns_svg;" xmlns:xlink="&ns_xlink;" width="1046" height="1024" viewBox="0 0 1046 1024"
	 overflow="visible" enable-background="new 0 0 1046 1024" xml:space="preserve">
<g id="icomoon-ignore">
</g>
<g>
	<path stroke="#000000" d="M348.116,793.774c54.903,0,109.808,0,164.712,0c12.084-53.435,2.025-129.036,5.318-191.263
		c-3.051-12.886-34.387,2.471-31.87-15.934c0-108.028,0-216.054,0-324.106c-31.849,0-63.763,0-95.63,0
		c-0.022,109.788-0.022,219.596-0.022,329.424c-8.792,8.88-31.18,4.205-47.804,5.296
		C346.114,661.198,336.032,738.58,348.116,793.774z"/>
	<path stroke="#000000" d="M549.994,793.776c53.122,0,106.27,0,159.392,0c-0.134-175.528,0.2-378.696,0-536.62
		c-33.647-0.002-67.275-0.002-100.926-0.002c-3.472,111.632,6.944,237.198-5.318,340.041c-19.474,0-38.968,0-58.443,0
		C547.992,661.2,537.91,738.582,549.994,793.776z"/>
	<path stroke="#000000" d="M140.898,602.49c0,63.762,0,127.521,0,191.262c56.662,0,113.346,0,170.008,0
		c0-63.762,0-127.521,0-191.262c-11.106-11.908-47.848,1.804-47.826-21.254c3.294-104.734-6.744-222.82,5.318-318.784
		c-33.65,0-67.3,0-100.95,0c0.024,109.808,0.024,219.616,0.024,329.444C159.526,608.032,137.182,580.5,140.898,602.49z"/>
	<path stroke="#000000" d="M916.63,597.216c-21.098-3.696-58.866,9.28-63.762-10.594c0-108.028,0-216.054,0-324.106
		c-35.431-0.02-70.86-0.02-106.269-0.02c0,177.107,0,354.194,0,531.302c54.904,0,109.809,0,164.713,0
		C923.418,738.605,913.316,661.222,916.63,597.216z"/>
	<rect x="131.804" y="241.832" stroke="#000000" width="819.97" height="9.077"/>
</g>
</svg>
