<?xml version="1.0" encoding="utf-8"?>
<!-- Generator: Adobe Illustrator 20.1.0, SVG Export Plug-In . SVG Version: 6.00 Build 0)  -->
<svg version="1.1" xmlns="http://www.w3.org/2000/svg" xmlns:xlink="http://www.w3.org/1999/xlink" x="0px" y="0px"
	 viewBox="0 0 550 550" style="enable-background:new 0 0 550 550;" xml:space="preserve">
<style type="text/css">
	.st0{fill:none;}
	.st1{fill-rule:evenodd;clip-rule:evenodd;fill:#FFFFFF;}
	.st2{fill:#FFFFFF;}
</style>
<g id="Layer_3">
</g>
<g id="Layer_2">
	<rect x="100.1" y="100" class="st0" width="349.9" height="350.1"/>
	<rect x="100.1" y="100" class="st0" width="349.9" height="350.1"/>
	<path class="st1" d="M274.9,100C178.2,100,99.9,178.3,99.9,275c0,96.7,78.4,175.1,175.1,175.1c96.7,0,175.1-78.4,175.1-175.1
		C450,178.3,371.6,100,274.9,100 M107,275c0-92.7,75.2-167.9,167.9-167.9c42,0,80.5,15.4,109.9,41c-16.3,18-32.2,36.2-49.1,53.7
		c-3.4-12.7-9.7-26.3-19.1-35.7c-6.4-6.4-16.1-12.6-27.7-11.9c-8.6,0.6-14.1,4.5-19.8,8.6c-6.4-5.6-20.2-3.5-28.8-1.1
		c-3.8,1.1-7.4,3.1-10.8,3.6c-14.3,2.1-26.7-7.7-33.5-14.8c-6.8,15.6-9.5,36.6-5,55.1c4.2,17.6,12.4,32.2,16.6,48.6
		c-0.6,1.2-1.4-1.2-2.2-2.2c-5.2-6.9-12.8-14.6-24.5-15.5c-14.4-1-24.8,7.7-29.9,15.1c-3.2,4.7-6.1,12.4-5.4,21.2
		c1.3,17.1,14.6,24.5,25.2,33.5c10.9,9.3,20,21.5,25.2,37.5c0.9,2.7,2.8,7.5,2.5,9.7c-0.3,2.1-3.1,4.4-4.7,6.1
		c-10.5,11.5-19.6,21.6-30.3,33.5c-0.7,0.8-2.2,3-3.3,4.4C127.5,367.1,107,323.4,107,275 M256.9,427.9c-2.7-1.3-5.7-2.8-8.3-4.7
		c-2.2-1.6-5.6-3.9-6.5-6.1c-1.1-2.6-0.8-7.1-0.7-9.4c1.1-22.1,17.7-39.5,28.8-51.9c0.4,0.1,0.2,0.4,0,0.4
		C261.8,374.5,249.8,399.9,256.9,427.9 M254.4,371c-8.3,11.1-15.9,24.6-14.8,43.2c-0.1,1.2-1.6-0.8-2.2-1.4
		c-10.4-12.2-21-26.8-28.1-42.9c-7.9-17.7-11.7-38.2-23.8-52.2c0.1-0.4,0.4-0.2,0.4,0c24.6,15.6,55.1,25.4,94,26.7
		c0.9,0,0.6,0.4,0,0.4C271,352.2,261.9,360.9,254.4,371 M231.7,333.9c-21.2-6.3-40.7-15.1-54-27c7.4-0.7,13.8,1.2,21.6,1.8
		c27.8,2,55.2-3.1,77.4-9.7c9.3-2.8,18.7-7,25.6-11.2c-1.8,14.7-2.4,36.3,1.4,50.4C279.3,343.7,252.4,340,231.7,333.9 M303.3,297.9
		c0.4-0.1,0.6,0.1,0.7,0.4c3,12.4,9.5,21.3,15.5,30.6c-3.4,3.5-8.6,7-13.3,7.9C303.6,325.3,302.3,311.9,303.3,297.9 M189.9,304.4
		c13.4-7.3,23.3-21.1,22.3-40.7c-0.4-8.1-3.6-15.7-6.5-22.7c-7.8-19.2-18.9-42.6-13.3-70.6c5.8,1.1,12.8,3.6,19.8,3.6
		c7.8,0,14.3-3.2,21.6-5.8c10.2-3.6,21.5-6.6,32.4-2.9c1.8,0.5-0.7,1.7-0.7,1.8c-7.8,9.2-16,17.2-16.6,34.9
		c-0.1,1.6-1.3,6.8,2.2,5.8c2,0.3,0.9-4.3,1.1-6.5c0.9-11.4,7.1-21.5,14.4-29.2c7-7.4,20.3-16.8,33.9-10.8
		c6.9,3.1,13.3,10.3,16.2,17.3c3.2,7.7,3.5,17.8,5.8,27.4c4.4,18.5,15.3,30.4,26.7,39.6C315.8,283.7,263.2,309.2,189.9,304.4
		 M327.5,215.4c2-3.6,5.2-6.1,7.6-9.4c5.8,9.1,14.2,15.6,27,17.6c-1.8,8.7-6.5,14.7-11.2,20.5C340.7,237,332.9,227.4,327.5,215.4"/>
</g>
<g id="Layer_4">
	<g>
		<path class="st2" d="M179.7,80.4c-3.3,0-5.8-1.2-7.6-3.5h-0.3c0.2,2.2,0.3,3.5,0.3,4v10.6h-5.5V54.1h4.5c0.1,0.5,0.4,1.6,0.8,3.5
			h0.3c1.7-2.6,4.3-3.9,7.7-3.9c3.2,0,5.8,1.2,7.6,3.5c1.8,2.3,2.7,5.6,2.7,9.9c0,4.2-0.9,7.5-2.8,9.9
			C185.5,79.3,183,80.4,179.7,80.4z M178.4,58.1c-2.2,0-3.8,0.6-4.8,1.9c-1,1.3-1.5,3.3-1.5,6.1V67c0,3.2,0.5,5.4,1.5,6.9
			c1,1.4,2.6,2.1,4.9,2.1c1.9,0,3.4-0.8,4.4-2.3c1-1.6,1.5-3.8,1.5-6.7c0-2.9-0.5-5.1-1.5-6.6C181.9,58.8,180.4,58.1,178.4,58.1z"/>
		<path class="st2" d="M224.3,67c0,4.2-1.1,7.5-3.3,9.9c-2.2,2.4-5.2,3.6-9.1,3.6c-2.4,0-4.6-0.5-6.4-1.6c-1.9-1.1-3.3-2.7-4.3-4.7
			c-1-2-1.5-4.4-1.5-7.1c0-4.2,1.1-7.5,3.2-9.8c2.2-2.4,5.2-3.5,9.1-3.5c3.8,0,6.7,1.2,8.9,3.6C223.2,59.6,224.3,62.9,224.3,67z
			 M205.4,67c0,6,2.2,9,6.6,9c4.4,0,6.6-3,6.6-9c0-5.9-2.2-8.9-6.6-8.9c-2.3,0-4,0.8-5,2.3C205.9,61.9,205.4,64.1,205.4,67z"/>
		<path class="st2" d="M248.6,80.4c-3.3,0-5.8-1.2-7.6-3.5h-0.3c0.2,2.2,0.3,3.5,0.3,4v10.6h-5.5V54.1h4.5c0.1,0.5,0.4,1.6,0.8,3.5
			h0.3c1.7-2.6,4.3-3.9,7.7-3.9c3.2,0,5.8,1.2,7.6,3.5c1.8,2.3,2.7,5.6,2.7,9.9c0,4.2-0.9,7.5-2.8,9.9
			C254.3,79.3,251.8,80.4,248.6,80.4z M247.2,58.1c-2.2,0-3.8,0.6-4.8,1.9c-1,1.3-1.5,3.3-1.5,6.1V67c0,3.2,0.5,5.4,1.5,6.9
			c1,1.4,2.6,2.1,4.9,2.1c1.9,0,3.4-0.8,4.4-2.3c1-1.6,1.5-3.8,1.5-6.7c0-2.9-0.5-5.1-1.5-6.6C250.7,58.8,249.2,58.1,247.2,58.1z"/>
		<path class="st2" d="M275.4,66.3l3.1-3.9l7.8-8.3h6.4l-10.4,11.1L293.4,80h-6.5l-8.3-11.4l-3,2.5V80h-5.5V43.5h5.5v17.8l-0.3,5
			H275.4z"/>
		<path class="st2" d="M325.4,67c0,4.2-1.1,7.5-3.3,9.9c-2.2,2.4-5.2,3.6-9.1,3.6c-2.4,0-4.6-0.5-6.4-1.6c-1.9-1.1-3.3-2.7-4.3-4.7
			c-1-2-1.5-4.4-1.5-7.1c0-4.2,1.1-7.5,3.2-9.8c2.2-2.4,5.2-3.5,9.1-3.5c3.8,0,6.7,1.2,8.9,3.6C324.3,59.6,325.4,62.9,325.4,67z
			 M306.5,67c0,6,2.2,9,6.6,9c4.4,0,6.6-3,6.6-9c0-5.9-2.2-8.9-6.6-8.9c-2.3,0-4,0.8-5,2.3C307,61.9,306.5,64.1,306.5,67z"/>
		<path class="st2" d="M359.5,67c0,4.2-1.1,7.5-3.3,9.9s-5.2,3.6-9.1,3.6c-2.4,0-4.6-0.5-6.4-1.6c-1.9-1.1-3.3-2.7-4.3-4.7
			c-1-2-1.5-4.4-1.5-7.1c0-4.2,1.1-7.5,3.2-9.8c2.2-2.4,5.2-3.5,9.1-3.5c3.8,0,6.7,1.2,8.9,3.6C358.4,59.6,359.5,62.9,359.5,67z
			 M340.6,67c0,6,2.2,9,6.6,9c4.4,0,6.6-3,6.6-9c0-5.9-2.2-8.9-6.6-8.9c-2.3,0-4,0.8-5,2.3C341.1,61.9,340.6,64.1,340.6,67z"/>
		<path class="st2" d="M383.7,53.6c1.1,0,2,0.1,2.7,0.2L386,59c-0.8-0.2-1.6-0.3-2.4-0.3c-2.2,0-4,0.7-5.4,2.2
			c-1.4,1.4-2.1,3.3-2.1,5.6V80h-5.5V54.1h4.3l0.7,4.6h0.3c0.9-1.5,2-2.8,3.4-3.7C380.7,54,382.2,53.6,383.7,53.6z"/>
	</g>
	<g>
		<path class="st2" d="M150.8,506.1h-7v-36.8h-12.6v-6h32.2v6h-12.6V506.1z"/>
		<path class="st2" d="M197.8,506.1h-6.9v-19.9c0-2.5-0.5-4.4-1.5-5.6c-1-1.2-2.6-1.8-4.8-1.8c-2.9,0-5,0.9-6.4,2.6
			c-1.4,1.7-2,4.6-2,8.7v16.1h-6.9v-45.6h6.9v11.6c0,1.9-0.1,3.8-0.4,5.9h0.4c0.9-1.6,2.2-2.8,3.9-3.6c1.7-0.9,3.6-1.3,5.8-1.3
			c7.9,0,11.8,4,11.8,11.9V506.1z"/>
		<path class="st2" d="M206.9,465.1c0-1.2,0.3-2.2,1-2.8c0.7-0.7,1.6-1,2.9-1c1.2,0,2.2,0.3,2.8,1c0.7,0.7,1,1.6,1,2.8
			c0,1.2-0.3,2.1-1,2.8c-0.7,0.7-1.6,1-2.8,1c-1.2,0-2.2-0.3-2.9-1C207.3,467.2,206.9,466.3,206.9,465.1z M214.2,506.1h-6.9v-32.4
			h6.9V506.1z"/>
		<path class="st2" d="M240.5,473.1c1.4,0,2.5,0.1,3.4,0.3l-0.7,6.4c-1-0.2-2-0.4-3-0.4c-2.8,0-5,0.9-6.7,2.7
			c-1.7,1.8-2.6,4.1-2.6,7v16.9h-6.9v-32.4h5.4l0.9,5.7h0.4c1.1-1.9,2.5-3.5,4.2-4.6C236.7,473.7,238.5,473.1,240.5,473.1z"/>
		<path class="st2" d="M260.9,506.7c-4,0-7.2-1.5-9.5-4.4c-2.3-2.9-3.4-7-3.4-12.3c0-5.3,1.1-9.4,3.4-12.4c2.3-3,5.5-4.4,9.5-4.4
			c4.3,0,7.5,1.6,9.7,4.7h0.4c-0.3-2.3-0.5-4.2-0.5-5.5v-11.8h6.9v45.6h-5.4l-1.2-4.2h-0.3C268.4,505.1,265.1,506.7,260.9,506.7z
			 M262.7,501.1c2.8,0,4.9-0.8,6.2-2.4c1.3-1.6,2-4.2,2-7.7v-1c0-4.1-0.7-7-2-8.7c-1.3-1.7-3.4-2.6-6.2-2.6c-2.4,0-4.3,1-5.6,2.9
			c-1.3,2-2,4.8-2,8.4c0,3.6,0.6,6.3,1.9,8.2C258.3,500.2,260.2,501.1,262.7,501.1z"/>
		<path class="st2" d="M313.9,506.1l-4.2-15.1c-0.5-1.6-1.4-5.3-2.8-11.2h-0.3c-1.1,5.3-2,9-2.7,11.2l-4.3,15.1h-7.6l-9.1-32.4h7
			l4.1,16c0.9,3.9,1.6,7.3,2,10.1h0.2c0.2-1.4,0.5-3.1,0.9-4.9c0.4-1.8,0.7-3.2,1-4.1l4.9-17.1h7.6l4.8,17.1c0.3,1,0.7,2.4,1.1,4.4
			c0.4,2,0.7,3.5,0.8,4.6h0.2c0.3-2.4,1-5.8,2.1-10.1l4.2-16h6.9l-9.1,32.4H313.9z"/>
		<path class="st2" d="M335.9,465.1c0-1.2,0.3-2.2,1-2.8c0.7-0.7,1.6-1,2.9-1c1.2,0,2.2,0.3,2.8,1c0.7,0.7,1,1.6,1,2.8
			c0,1.2-0.3,2.1-1,2.8c-0.7,0.7-1.6,1-2.8,1c-1.2,0-2.2-0.3-2.9-1C336.3,467.2,335.9,466.3,335.9,465.1z M343.2,506.1h-6.9v-32.4
			h6.9V506.1z"/>
		<path class="st2" d="M381.6,506.1h-6.9v-19.9c0-2.5-0.5-4.4-1.5-5.6c-1-1.2-2.6-1.8-4.8-1.8c-2.9,0-5,0.9-6.4,2.6
			c-1.3,1.7-2,4.6-2,8.6v16.1h-6.9v-32.4h5.4l1,4.2h0.4c1-1.5,2.4-2.7,4.2-3.6c1.8-0.8,3.8-1.3,6-1.3c7.8,0,11.7,4,11.7,11.9V506.1z
			"/>
		<path class="st2" d="M418.5,473.7v3.8l-5.5,1c0.5,0.7,0.9,1.5,1.3,2.5c0.3,1,0.5,2.1,0.5,3.2c0,3.3-1.2,6-3.5,7.9
			c-2.3,1.9-5.5,2.9-9.5,2.9c-1,0-2-0.1-2.8-0.2c-1.5,0.9-2.2,2-2.2,3.2c0,0.7,0.3,1.3,1,1.7c0.7,0.4,2,0.6,3.8,0.6h5.7
			c3.6,0,6.3,0.8,8.1,2.3c1.9,1.5,2.8,3.7,2.8,6.6c0,3.7-1.5,6.5-4.5,8.5c-3,2-7.4,3-13.1,3c-4.4,0-7.8-0.8-10.1-2.3
			s-3.5-3.8-3.5-6.7c0-2,0.6-3.7,1.9-5c1.3-1.4,3-2.3,5.3-2.8c-0.9-0.4-1.7-1-2.3-1.9c-0.6-0.9-0.9-1.8-0.9-2.7c0-1.2,0.3-2.2,1-3.1
			c0.7-0.8,1.7-1.7,3-2.5c-1.7-0.7-3-1.9-4.1-3.5c-1-1.6-1.6-3.5-1.6-5.7c0-3.5,1.1-6.2,3.3-8.2c2.2-1.9,5.4-2.9,9.5-2.9
			c0.9,0,1.9,0.1,2.9,0.2c1,0.1,1.8,0.3,2.3,0.4H418.5z M393.1,511.1c0,1.5,0.7,2.6,2,3.4c1.3,0.8,3.2,1.2,5.6,1.2
			c3.8,0,6.5-0.5,8.4-1.6c1.8-1.1,2.8-2.5,2.8-4.3c0-1.4-0.5-2.4-1.5-3c-1-0.6-2.9-0.9-5.6-0.9h-5.2c-2,0-3.5,0.5-4.7,1.4
			C393.6,508.3,393.1,509.6,393.1,511.1z M396,484.2c0,2,0.5,3.6,1.6,4.7c1,1.1,2.5,1.6,4.5,1.6c4,0,6-2.1,6-6.4
			c0-2.1-0.5-3.7-1.5-4.9c-1-1.1-2.5-1.7-4.5-1.7c-2,0-3.5,0.6-4.5,1.7C396.5,480.4,396,482,396,484.2z"/>
	</g>
</g>
</svg>
