<?xml version="1.0" encoding="utf-8"?>
<!-- Generator: Adobe Illustrator 20.1.0, SVG Export Plug-In . SVG Version: 6.00 Build 0)  -->
<svg version="1.1" id="Layer_3" xmlns="http://www.w3.org/2000/svg" xmlns:xlink="http://www.w3.org/1999/xlink" x="0px" y="0px"
	 viewBox="0 0 370 367" style="enable-background:new 0 0 370 367;" xml:space="preserve">
<style type="text/css">
	.st0{fill-rule:evenodd;clip-rule:evenodd;fill:#FFFFFF;}
</style>
<path class="st0" d="M185.5,7.5c-96.7,0-175,78.4-175,175c0,96.6,78.3,175,175,175c96.7,0,175-78.4,175-175
	C360.5,85.9,282.2,7.5,185.5,7.5z M17.6,182.5c0-92.7,75.2-167.9,167.9-167.9c42,0,80.4,15.4,109.9,40.9c-16.3,18-32.2,36.2-49,53.7
	c-3.4-12.7-9.7-26.3-19.1-35.6c-6.4-6.4-16.1-12.6-27.7-11.9c-8.6,0.6-14.1,4.5-19.8,8.6c-6.4-5.6-20.2-3.5-28.8-1.1
	c-3.8,1.1-7.4,3.1-10.8,3.6c-14.3,2.1-26.7-7.7-33.5-14.8c-6.8,15.6-9.5,36.6-5,55.1c4.2,17.6,12.3,32.2,16.6,48.6
	c-0.6,1.2-1.4-1.2-2.2-2.2c-5.2-6.9-12.8-14.6-24.5-15.5c-14.4-1-24.8,7.7-29.9,15.1c-3.2,4.7-6.1,12.4-5.4,21.2
	c1.3,17.1,14.6,24.5,25.2,33.5c10.9,9.3,20,21.5,25.2,37.4c0.9,2.7,2.8,7.5,2.5,9.7c-0.3,2.1-3.1,4.4-4.7,6.1
	c-10.5,11.5-19.6,21.6-30.2,33.5c-0.7,0.8-2.2,3-3.3,4.4C38.1,274.5,17.6,230.9,17.6,182.5z M167.5,335.3c-2.7-1.3-5.7-2.8-8.3-4.7
	c-2.2-1.6-5.6-3.9-6.5-6.1c-1.1-2.6-0.8-7.1-0.7-9.4c1.1-22,17.7-39.5,28.8-51.8c0.4,0.1,0.2,0.4,0,0.4
	C172.4,281.9,160.4,307.4,167.5,335.3z M165,278.4c-8.3,11.1-15.9,24.6-14.8,43.2c-0.1,1.2-1.6-0.8-2.2-1.4
	c-10.4-12.2-21-26.8-28.1-42.8c-7.9-17.7-11.7-38.2-23.8-52.2c0.1-0.4,0.4-0.2,0.4,0c24.6,15.6,55,25.4,94,26.6c0.9,0,0.6,0.4,0,0.4
	C181.6,259.7,172.5,268.4,165,278.4z M142.3,241.4c-21.2-6.3-40.7-15.1-54-27c7.4-0.7,13.8,1.2,21.6,1.8c27.8,2,55.2-3.1,77.4-9.7
	c9.3-2.8,18.7-7,25.6-11.2c-1.8,14.7-2.4,36.3,1.4,50.4C189.9,251.2,163,247.5,142.3,241.4z M213.9,205.4c0.4-0.1,0.6,0.1,0.7,0.4
	c3,12.4,9.5,21.3,15.5,30.6c-3.4,3.5-8.6,7-13.3,7.9C214.2,232.8,212.9,219.4,213.9,205.4z M100.5,211.8
	c13.4-7.3,23.3-21.1,22.3-40.7c-0.4-8.1-3.6-15.6-6.5-22.7c-7.8-19.2-18.9-42.6-13.3-70.6c5.8,1.1,12.8,3.6,19.8,3.6
	c7.8,0,14.3-3.2,21.6-5.8c10.2-3.6,21.5-6.6,32.4-2.9c1.8,0.5-0.7,1.7-0.7,1.8c-7.8,9.2-16,17.2-16.6,34.9c-0.1,1.6-1.3,6.8,2.2,5.8
	c2,0.3,0.9-4.3,1.1-6.5c0.9-11.4,7.1-21.5,14.4-29.2c7-7.3,20.3-16.8,33.8-10.8c6.9,3.1,13.3,10.3,16.2,17.3
	c3.2,7.7,3.5,17.8,5.8,27.4c4.4,18.5,15.3,30.4,26.6,39.6C226.4,191.1,173.8,216.6,100.5,211.8z M238.1,122.9c2-3.6,5.2-6.1,7.6-9.4
	c5.8,9.1,14.2,15.6,27,17.6c-1.8,8.7-6.4,14.7-11.2,20.5C251.3,144.5,243.5,134.9,238.1,122.9z"/>
</svg>
